<?xml version="1.0" encoding="utf-8"?>
<!-- Generator: Adobe Illustrator 27.7.0, SVG Export Plug-In . SVG Version: 6.00 Build 0)  -->
<svg version="1.1" id="Layer_1" xmlns="http://www.w3.org/2000/svg" xmlns:xlink="http://www.w3.org/1999/xlink" x="0px" y="0px"
	 viewBox="0 0 1920 325.3" style="enable-background:new 0 0 1920 325.3;" xml:space="preserve">
<style type="text/css">
	.st0{fill:#231F20;}
	.st1{fill:#FFFFFF;}
	.st2{fill:#5C0F8B;}
</style>
<g>
	<g>
		<rect x="879.4" y="29.1" class="st0" width="5.8" height="267.1"/>
	</g>
	<g>
		<rect x="54.5" y="35.6" class="st1" width="216.1" height="251.4"/>
		<g>
			<g>
				<path class="st2" d="M362.2,87.8H393l71.1,93.4V87.8h33v151.7h-28.4l-73.5-96.5v96.5h-32.9V87.8z"/>
				<path class="st2" d="M572,179.7l-58.3-91.9h39l36.2,60.9l36.8-60.9h37.9l-58.3,91.3v60.5H572V179.7z"/>
				<path class="st2" d="M678,174.5V87.8h33.4v85.8c0,24.7,12.3,37.5,32.7,37.5c20.4,0,32.7-12.4,32.7-36.4V87.8h33.4v85.6
					c0,45.9-25.8,68.5-66.5,68.5C702.9,241.9,678,219.1,678,174.5z"/>
			</g>
			<path class="st2" d="M292.9,296.2H25.8V29.1h267.1V296.2L292.9,296.2z M150.1,265c0.3,1.9,4.4,2.8,5.3,0l9.3-74h-22.7L150.1,265
				L150.1,265z M172.7,185.6v-11.2h-38.5v11.2H172.7L172.7,185.6z M161.6,168.9c48.9,1.8,52.3-42.8,52.5-59.5c0-1-0.5-1.1-0.7-0.4
				c-1.4,3.5-7.8,15.9-25.4,23.4c-15.7,6.8-25.2,22.1-26.8,35.8C161,168.7,161.3,168.9,161.6,168.9z M156.2,165.7
				c7.7-37.1,37.9-38,40.6-45c4.2-11-3.5-30.5-5.5-32.8c-0.2-0.3-0.5-0.1-0.6,0.1c-4.1,9-10.7,17.5-15.6,21.5
				c-6.8,5.5-33.1,24.9-19.7,56.2C155.7,166.1,156.1,166,156.2,165.7z M150.9,167.2c-16.4-35,16.4-57.6,21.7-62.5
				c0.8-0.7,0.6-1.3,0.6-2.1c0-11-6.3-28.8-8.4-31.4c-0.3-0.4-0.6-0.2-0.7,0.2c-2.8,10.9-17.7,27-20.7,30.6
				c-25.3,30-19.5,48.3,6.9,65.6C150.6,167.8,151.1,167.6,150.9,167.2z M143.5,168.4c-27.4-16.3-24.6-39.7-13.3-56.8
				c0.2-0.3,0.3-0.9,0.3-1.6c-0.5-4.1-4.9-14.4-6.8-17.2c-0.5-0.7-0.9-0.7-0.9-0.1c-0.2,4.6-5.5,16.3-13.6,29.8
				c-8.6,14.3-8.7,45.4,34.2,46.7C143.8,169.1,143.9,168.7,143.5,168.4z"/>
		</g>
	</g>
	<g>
		<path class="st0" d="M1008.1,121.9h-45.8V91.3h124.8v30.5h-45.8v120h-33.1V121.9z"/>
		<path class="st0" d="M1140.5,90.2h30.5l64.5,151.7h-34.6l-13.8-33.8h-63.7l-13.8,33.8h-33.8L1140.5,90.2z M1175.3,178.9l-20-48.8
			l-20,48.8H1175.3z"/>
		<path class="st0" d="M1254.7,91.3h30.5l70.6,92.7V91.3h32.7v150.6h-28.2l-72.9-95.7v95.7h-32.7V91.3z"/>
		<path class="st0" d="M1419.8,91.3h58.7c47.3,0,80,32.5,80,74.9v0.4c0,42.4-32.7,75.3-80,75.3h-58.7V91.3z M1452.9,121.2V212h25.6
			c27.1,0,45.4-18.3,45.4-45v-0.4c0-26.7-18.3-45.4-45.4-45.4H1452.9z"/>
		<path class="st0" d="M1577.1,167v-0.4c0-42.8,33.8-77.9,80.2-77.9c46.5,0,79.8,34.6,79.8,77.4v0.4c0,42.8-33.8,77.9-80.2,77.9
			C1610.4,244.5,1577.1,209.8,1577.1,167z M1702.5,167v-0.4c0-25.8-18.9-47.3-45.6-47.3s-45.2,21.1-45.2,46.9v0.4
			c0,25.8,18.9,47.3,45.6,47.3C1684,213.9,1702.5,192.8,1702.5,167z"/>
		<path class="st0" d="M1762.3,91.3h30.5l70.6,92.7V91.3h32.7v150.6H1868l-72.9-95.7v95.7h-32.7V91.3z"/>
	</g>
</g>
</svg>
